<svg width="24" height="24" viewBox="0 0 24 24" fill="none" xmlns="http://www.w3.org/2000/svg">
<path d="M9.60598 14.3651C10.506 15.2281 11.561 15.9301 12.727 16.4281L13.246 16.6491L14.841 15.0291C15.237 14.6271 15.81 14.4531 16.363 14.5691L20.227 15.3781C20.881 15.5171 21.348 16.0941 21.348 16.7621V19.5441C21.348 20.5391 20.542 21.3451 19.547 21.3451H18.692C14.758 21.3451 10.876 20.0421 7.93998 17.4241C7.69798 17.2091 7.46298 16.9861 7.23398 16.7581L7.27098 16.7951C7.04198 16.5661 6.81998 16.3311 6.60498 16.0891C3.98598 13.1541 2.68298 9.27213 2.68298 5.33813V4.48313C2.68298 3.48813 3.48898 2.68213 4.48398 2.68213H7.26598C7.93398 2.68213 8.51098 3.14913 8.64998 3.80313L9.45998 7.66713C9.57498 8.21913 9.40198 8.79313 8.99998 9.18913L7.37998 10.7841L7.60098 11.3031C8.09898 12.4681 8.74198 13.4651 9.60598 14.3651Z" stroke="#49484B" stroke-width="1.5" stroke-miterlimit="10" stroke-linecap="round" stroke-linejoin="round"/>
</svg>
