<svg viewBox="0 0 22 22" fill="currentColor" xmlns="http://www.w3.org/2000/svg">
<path d="M13.387 1.725C17.192 1.725 20.276 4.809 20.276 8.614M13.387 5.265C15.236 5.265 16.736 6.764 16.736 8.614M8.60598 13.365C9.50598 14.228 10.561 14.93 11.727 15.428L12.246 15.649L13.841 14.029C14.237 13.627 14.81 13.453 15.363 13.569L19.227 14.378C19.881 14.517 20.348 15.094 20.348 15.762V18.544C20.348 19.539 19.542 20.345 18.547 20.345H17.692C13.758 20.345 9.87598 19.042 6.93998 16.424C6.69798 16.209 6.46298 15.986 6.23398 15.758L6.27098 15.795C6.04198 15.566 5.81998 15.331 5.60498 15.089C2.98598 12.154 1.68298 8.272 1.68298 4.338V3.483C1.68298 2.488 2.48898 1.682 3.48398 1.682H6.26598C6.93398 1.682 7.51098 2.149 7.64998 2.803L8.45998 6.667C8.57498 7.219 8.40198 7.793 7.99998 8.189L6.37998 9.784L6.60098 10.303C7.09898 11.468 7.74198 12.465 8.60598 13.365Z" stroke="black" stroke-width="1.5" stroke-miterlimit="10" stroke-linecap="round" stroke-linejoin="round"/>
</svg>
