<svg width="32" height="32" viewBox="0 0 32 32" fill="none" xmlns="http://www.w3.org/2000/svg">
<path d="M9.3118 5.9165C8.89758 5.9165 8.5618 6.25229 8.5618 6.6665C8.5618 7.08072 8.89758 7.4165 9.3118 7.4165V5.9165ZM25.3333 6.6665H26.0833C26.0833 6.25229 25.7475 5.9165 25.3333 5.9165V6.6665ZM24.5833 22.6861C24.5833 23.1003 24.9191 23.4361 25.3333 23.4361C25.7475 23.4361 26.0833 23.1003 26.0833 22.6861H24.5833ZM6.13633 24.8028C5.84343 25.0957 5.84343 25.5706 6.13633 25.8635C6.42922 26.1564 6.90409 26.1564 7.19699 25.8635L6.13633 24.8028ZM25.8399 7.22063C26.1328 6.92773 26.1328 6.45286 25.8399 6.15997C25.547 5.86707 25.0721 5.86707 24.7792 6.15997L25.8399 7.22063ZM9.3118 7.4165H25.3333V5.9165H9.3118V7.4165ZM24.5833 6.6665V22.6861H26.0833V6.6665H24.5833ZM7.19699 25.8635L25.8399 7.22063L24.7792 6.15997L6.13633 24.8028L7.19699 25.8635Z" fill="#F20009"/>
</svg>
