<svg width="26" height="24" viewBox="0 0 26 24" fill="none" xmlns="http://www.w3.org/2000/svg">
<mask id="path-1-inside-1_148_115" fill="white">
<path fill-rule="evenodd" clip-rule="evenodd" d="M22.8362 3.53844C23.9131 3.82837 24.7621 4.67745 25.0521 5.75434C25.5905 7.72172 25.5698 11.8222 25.5698 11.8222C25.5698 11.8222 25.5698 15.9019 25.0521 17.8693C24.7621 18.9462 23.9131 19.7952 22.8362 20.0852C20.8688 20.6029 12.9993 20.6029 12.9993 20.6029C12.9993 20.6029 5.15043 20.6029 3.16234 20.0645C2.08546 19.7745 1.23637 18.9255 0.946444 17.8486C0.428711 15.9019 0.428711 11.8015 0.428711 11.8015C0.428711 11.8015 0.428711 7.72172 0.946444 5.75434C1.23637 4.67745 2.10616 3.80766 3.16234 3.51773C5.12972 3 12.9993 3 12.9993 3C12.9993 3 20.8688 3 22.8362 3.53844ZM16 11.625L11.5 14.25V9L16 11.625Z"/>
</mask>
<path d="M25.0521 5.75434L23.1208 6.27429L23.123 6.28229L25.0521 5.75434ZM22.8362 3.53844L22.3082 5.46752L22.3162 5.46967L22.8362 3.53844ZM25.5698 11.8222L23.5698 11.8121V11.8222H25.5698ZM25.0521 17.8693L26.9833 18.3892L26.9862 18.3783L25.0521 17.8693ZM22.8362 20.0852L23.3452 22.0194L23.3561 22.0164L22.8362 20.0852ZM3.16234 20.0645L3.68517 18.134L3.68229 18.1332L3.16234 20.0645ZM0.946444 17.8486L-0.986376 18.3626L-0.984788 18.3685L0.946444 17.8486ZM0.946444 5.75434L-0.984819 5.23438L-0.987705 5.24535L0.946444 5.75434ZM3.16234 3.51773L2.65335 1.58358L2.64311 1.58628L2.63291 1.58908L3.16234 3.51773ZM11.5 14.25H9.5V17.7321L12.5077 15.9776L11.5 14.25ZM16 11.625L17.0077 13.3526L19.9693 11.625L17.0077 9.89744L16 11.625ZM11.5 9L12.5077 7.27244L9.5 5.51793V9H11.5ZM26.9833 5.23439C26.5081 3.46919 25.1213 2.08246 23.3561 1.60721L22.3162 5.46967C22.7048 5.57429 23.0162 5.88572 23.1208 6.27428L26.9833 5.23439ZM25.5698 11.8222C27.5698 11.8323 27.5698 11.8321 27.5698 11.832C27.5698 11.8319 27.5698 11.8317 27.5698 11.8316C27.5698 11.8313 27.5698 11.8309 27.5698 11.8305C27.5698 11.8296 27.5698 11.8285 27.5698 11.8272C27.5698 11.8245 27.5698 11.8208 27.5698 11.8162C27.5699 11.8069 27.5699 11.7938 27.5699 11.777C27.5699 11.7434 27.5699 11.6951 27.5696 11.6338C27.5691 11.5111 27.5678 11.3356 27.5644 11.1196C27.5577 10.6885 27.5429 10.0915 27.5105 9.42838C27.4487 8.16416 27.3149 6.44586 26.9811 5.22638L23.123 6.28229C23.3277 7.0302 23.4528 8.34582 23.5152 9.62366C23.545 10.2316 23.5587 10.7827 23.5649 11.1819C23.568 11.3811 23.5692 11.5413 23.5697 11.6505C23.5699 11.7051 23.5699 11.7469 23.5699 11.7743C23.5699 11.788 23.5699 11.7982 23.5699 11.8045C23.5699 11.8077 23.5698 11.8099 23.5698 11.8112C23.5698 11.8118 23.5698 11.8122 23.5698 11.8124C23.5698 11.8124 23.5698 11.8125 23.5698 11.8124C23.5698 11.8124 23.5698 11.8123 23.5698 11.8123C23.5698 11.8122 23.5698 11.8121 25.5698 11.8222ZM26.9862 18.3783C27.3038 17.1714 27.4381 15.4698 27.5025 14.2101C27.5362 13.551 27.553 12.9578 27.5613 12.5295C27.5655 12.3149 27.5677 12.1406 27.5687 12.0188C27.5693 11.9579 27.5695 11.9101 27.5697 11.8768C27.5697 11.8602 27.5698 11.8472 27.5698 11.838C27.5698 11.8334 27.5698 11.8298 27.5698 11.8271C27.5698 11.8258 27.5698 11.8247 27.5698 11.8239C27.5698 11.8235 27.5698 11.8231 27.5698 11.8228C27.5698 11.8227 27.5698 11.8225 27.5698 11.8225C27.5698 11.8223 27.5698 11.8222 25.5698 11.8222C23.5698 11.8222 23.5698 11.8221 23.5698 11.822C23.5698 11.822 23.5698 11.8219 23.5698 11.8219C23.5698 11.8218 23.5698 11.8218 23.5698 11.8219C23.5698 11.8221 23.5698 11.8225 23.5698 11.8231C23.5698 11.8244 23.5698 11.8267 23.5698 11.8299C23.5698 11.8363 23.5698 11.8464 23.5697 11.8601C23.5696 11.8876 23.5694 11.9293 23.5689 11.9838C23.5679 12.0928 23.566 12.2526 23.5621 12.4512C23.5543 12.8493 23.5387 13.3991 23.5077 14.0058C23.4427 15.2778 23.3181 16.5998 23.1179 17.3603L26.9862 18.3783ZM23.3561 22.0164C25.1213 21.5412 26.5081 20.1544 26.9833 18.3892L23.1208 17.3493C23.0162 17.7379 22.7048 18.0493 22.3162 18.1539L23.3561 22.0164ZM12.9993 20.6029C12.9993 22.6029 12.9994 22.6029 12.9995 22.6029C12.9996 22.6029 12.9997 22.6029 12.9999 22.6029C13.0002 22.6029 13.0006 22.6029 13.0012 22.6029C13.0023 22.6029 13.0039 22.6029 13.006 22.6029C13.0102 22.6029 13.0162 22.6029 13.024 22.6029C13.0397 22.6029 13.0626 22.6028 13.0925 22.6028C13.1521 22.6027 13.2392 22.6024 13.3505 22.6019C13.5729 22.6009 13.892 22.5988 14.2807 22.5947C15.0573 22.5865 16.1156 22.5702 17.2384 22.5373C18.3581 22.5046 19.5578 22.455 20.6123 22.3794C21.6117 22.3076 22.6489 22.2026 23.3452 22.0193L22.3272 18.151C22.0398 18.2267 21.3555 18.3157 20.326 18.3896C19.3517 18.4596 18.2151 18.5071 17.1215 18.5391C16.031 18.5709 14.999 18.5869 14.2386 18.5949C13.8587 18.5989 13.5476 18.6009 13.332 18.6019C13.2242 18.6024 13.1404 18.6027 13.0838 18.6028C13.0555 18.6029 13.034 18.6029 13.0198 18.6029C13.0127 18.6029 13.0074 18.6029 13.0039 18.6029C13.0022 18.6029 13.001 18.6029 13.0002 18.6029C12.9998 18.6029 12.9995 18.6029 12.9994 18.6029C12.9993 18.6029 12.9993 18.6029 12.9992 18.6029C12.9992 18.6029 12.9993 18.6029 12.9993 20.6029ZM2.63951 21.9949C3.34481 22.1859 4.38774 22.2955 5.38936 22.3702C6.44634 22.449 7.64651 22.5006 8.76547 22.5347C9.88767 22.5688 10.9446 22.5859 11.7199 22.5944C12.1079 22.5986 12.4264 22.6008 12.6485 22.6018C12.7595 22.6024 12.8465 22.6026 12.9061 22.6028C12.9359 22.6028 12.9588 22.6029 12.9745 22.6029C12.9823 22.6029 12.9883 22.6029 12.9925 22.6029C12.9946 22.6029 12.9962 22.6029 12.9973 22.6029C12.9979 22.6029 12.9983 22.6029 12.9986 22.6029C12.9988 22.6029 12.999 22.6029 12.999 22.6029C12.9992 22.6029 12.9993 22.6029 12.9993 20.6029C12.9993 18.6029 12.9993 18.6029 12.9993 18.6029C12.9993 18.6029 12.9992 18.6029 12.9992 18.6029C12.999 18.6029 12.9988 18.6029 12.9984 18.6029C12.9976 18.6029 12.9964 18.6029 12.9947 18.6029C12.9912 18.6029 12.986 18.6029 12.9789 18.6029C12.9647 18.6029 12.9434 18.6029 12.9152 18.6028C12.8588 18.6027 12.7752 18.6024 12.6678 18.6019C12.4528 18.6009 12.1426 18.5988 11.7638 18.5946C11.0053 18.5863 9.97572 18.5697 8.8872 18.5365C7.79544 18.5033 6.66064 18.4539 5.68681 18.3813C4.65763 18.3046 3.97392 18.2122 3.68517 18.134L2.63951 21.9949ZM-0.984788 18.3685C-0.509543 20.1337 0.877193 21.5205 2.64239 21.9957L3.68229 18.1332C3.29372 18.0286 2.98229 17.7172 2.87768 17.3286L-0.984788 18.3685ZM0.428711 11.8015C-1.57129 11.8015 -1.57129 11.8016 -1.57129 11.8018C-1.57129 11.8018 -1.57129 11.802 -1.57129 11.8021C-1.57129 11.8024 -1.57129 11.8028 -1.57129 11.8032C-1.57129 11.804 -1.57129 11.8051 -1.57129 11.8064C-1.57128 11.8091 -1.57128 11.8127 -1.57127 11.8173C-1.57125 11.8265 -1.57121 11.8396 -1.57115 11.8563C-1.57101 11.8897 -1.57074 11.9377 -1.5702 11.9989C-1.56914 12.1212 -1.56702 12.2962 -1.56282 12.5116C-1.55444 12.9414 -1.53767 13.5365 -1.50397 14.1969C-1.43967 15.4572 -1.30553 17.1626 -0.986367 18.3626L2.87925 17.3345C2.68069 16.5879 2.55596 15.2697 2.49083 13.9931C2.45981 13.385 2.44422 12.8334 2.43642 12.4336C2.43253 12.2341 2.4306 12.0736 2.42965 11.964C2.42917 11.9093 2.42893 11.8673 2.42882 11.8397C2.42876 11.8259 2.42874 11.8157 2.42872 11.8092C2.42872 11.806 2.42871 11.8037 2.42871 11.8024C2.42871 11.8018 2.42871 11.8014 2.42871 11.8012C2.42871 11.8011 2.42871 11.8011 2.42871 11.8011C2.42871 11.8012 2.42871 11.8012 2.42871 11.8013C2.42871 11.8013 2.42871 11.8015 0.428711 11.8015ZM-0.987705 5.24535C-1.3053 6.45221 -1.43956 8.15379 -1.50396 9.41355C-1.53766 10.0726 -1.55443 10.6658 -1.56282 11.0941C-1.56702 11.3087 -1.56913 11.483 -1.5702 11.6048C-1.57073 11.6657 -1.57101 11.7136 -1.57115 11.7468C-1.57121 11.7635 -1.57125 11.7765 -1.57127 11.7856C-1.57128 11.7902 -1.57128 11.7938 -1.57129 11.7965C-1.57129 11.7978 -1.57129 11.7989 -1.57129 11.7997C-1.57129 11.8001 -1.57129 11.8005 -1.57129 11.8008C-1.57129 11.8009 -1.57129 11.8011 -1.57129 11.8012C-1.57129 11.8013 -1.57129 11.8015 0.428711 11.8015C2.42871 11.8015 2.42871 11.8016 2.42871 11.8017C2.42871 11.8017 2.42871 11.8017 2.42871 11.8018C2.42871 11.8018 2.42871 11.8018 2.42871 11.8017C2.42871 11.8015 2.42871 11.8011 2.42871 11.8005C2.42871 11.7992 2.42872 11.797 2.42872 11.7938C2.42874 11.7874 2.42876 11.7772 2.42882 11.7635C2.42893 11.736 2.42917 11.6943 2.42965 11.6398C2.4306 11.5308 2.43253 11.371 2.43642 11.1724C2.44421 10.7743 2.4598 10.2246 2.49082 9.61778C2.55585 8.34583 2.68045 7.02385 2.88059 6.26332L-0.987705 5.24535ZM2.63291 1.58908C0.890097 2.0675 -0.511164 3.47522 -0.984788 5.23439L2.87768 6.27428C2.98391 5.87969 3.32223 5.54783 3.69177 5.44639L2.63291 1.58908ZM12.9993 3C12.9993 1 12.9992 1 12.999 1C12.999 1 12.9988 1 12.9986 1C12.9983 1 12.9979 1 12.9973 1C12.9962 1 12.9946 1 12.9925 1C12.9884 1 12.9824 1.00001 12.9745 1.00002C12.9588 1.00003 12.9359 1.00007 12.9061 1.00013C12.8464 1.00026 12.7593 1.00052 12.648 1.00103C12.4256 1.00206 12.1065 1.00411 11.7179 1.0082C10.9413 1.01638 9.88296 1.03274 8.76012 1.06557C7.64042 1.09831 6.44075 1.14786 5.38618 1.22355C4.38678 1.29528 3.34962 1.40036 2.65335 1.58358L3.67133 5.45188C3.95875 5.37624 4.64305 5.28717 5.67252 5.21329C6.64681 5.14336 7.78341 5.09584 8.87702 5.06386C9.96749 5.03198 10.9995 5.01598 11.76 5.00798C12.1398 5.00398 12.4509 5.00199 12.6665 5.00099C12.7743 5.00049 12.8582 5.00024 12.9148 5.00012C12.943 5.00006 12.9645 5.00003 12.9787 5.00001C12.9859 5.00001 12.9912 5 12.9946 5C12.9963 5 12.9976 5 12.9983 5C12.9987 5 12.999 5 12.9992 5C12.9992 5 12.9993 5 12.9993 5C12.9993 5 12.9993 5 12.9993 3ZM23.3641 1.60938C22.6608 1.4169 21.6172 1.30728 20.618 1.2327C19.5619 1.15387 18.361 1.10229 17.2407 1.06823C16.1173 1.03406 15.0584 1.01704 14.2815 1.00853C13.8926 1.00428 13.5734 1.00214 13.3509 1.00107C13.2395 1.00054 13.1524 1.00027 13.0926 1.00014C13.0628 1.00007 13.0398 1.00003 13.0241 1.00002C13.0162 1.00001 13.0102 1 13.0061 1C13.004 1 13.0024 1 13.0012 1C13.0007 1 13.0002 1 12.9999 1C12.9997 1 12.9996 1 12.9995 1C12.9994 1 12.9993 1 12.9993 3C12.9993 5 12.9992 5 12.9992 5C12.9993 5 12.9993 5 12.9994 5C12.9995 5 12.9998 5 13.0002 5C13.0009 5 13.0022 5 13.0039 5C13.0073 5 13.0126 5.00001 13.0197 5.00002C13.0339 5.00003 13.0553 5.00006 13.0836 5.00013C13.1401 5.00025 13.2239 5.00051 13.3316 5.00103C13.5471 5.00206 13.8581 5.00414 14.2377 5.00829C14.9978 5.01661 16.0293 5.03324 17.1192 5.06638C18.2123 5.09962 19.3476 5.149 20.3203 5.22161C21.35 5.29847 22.0278 5.39076 22.3082 5.4675L23.3641 1.60938ZM12.5077 15.9776L17.0077 13.3526L14.9923 9.89744L10.4923 12.5224L12.5077 15.9776ZM9.5 9V14.25H13.5V9H9.5ZM17.0077 9.89744L12.5077 7.27244L10.4923 10.7276L14.9923 13.3526L17.0077 9.89744Z" fill="#020105" mask="url(#path-1-inside-1_148_115)"/>
</svg>
